# xmcd CD database file
#
# Track frame offsets:
#	150
#	24865
#	42435
#	64995
#	80267
#	98712
#	113002
#	134942
#	148442
#	186285
#	213187
#	238895
#	253785
#	275167
#	301067
#
# Disc length: 4208 seconds
#
# Revision: 4
# Processed by: cddbd v1.5.2PL0 Copyright (c) Steve Scherf et al.
# Submitted via: CDex 1.51
#
DISCID=e3106e0f
DTITLE=Ry Cooder - Chavez Ravine
DYEAR=2005
DGENRE=Rock
TTITLE0=Poor Man's Shangri-La
TTITLE1=Onda Callejera
TTITLE2=Don't Call Me Red
TTITLE3=Corrido de Boxeo
TTITLE4=Muy Fifi
TTITLE5=Los Chucos Suaves
TTITLE6=Chinito Chinito
TTITLE7=3 Cool Cats
TTITLE8=El U.F.O. Cayo
TTITLE9=It's Just Work for Me
TTITLE10=In My Town
TTITLE11=Ejercito Militar
TTITLE12=Barrio Viejo
TTITLE13=3rd Base, Dodger Stadium
TTITLE14=Soy Luz y Sombra
EXTD=YEAR: 2005
EXTT0=
EXTT1=
EXTT2=
EXTT3=
EXTT4=
EXTT5=
EXTT6=
EXTT7=
EXTT8=
EXTT9=
EXTT10=
EXTT11=
EXTT12=
EXTT13=
EXTT14=
PLAYORDER=
